<svg xmlns="http://www.w3.org/2000/svg" width="834.006" height="104.031" viewBox="0 0 834.006 104.031">
  <g id="Groupe_1" data-name="Groupe 1" transform="translate(-146 -287.902)">
    <path id="bleu_très_foncé" data-name="bleu très foncé" d="M253.691,288.377c.687-.672,67.271,0,67.271,0s50.67,86.95,77.2,102.744c.366.238-202.927.112-202.981.1C199.915,310.014,219.119,301,253.691,288.377Z" transform="translate(74.736 0.268)" fill="#343b52"/>
    <path id="bleu_foncé" data-name="bleu foncé" d="M192.924,288.2H306.106s-39.47,91.75-58.132,102.842c.035-.2-87.286.042-87.286.042Z" transform="translate(22.321 0.452)" fill="#4ba2ea"/>
    <path id="bleu_clair" data-name="bleu clair" d="M146,288.2h69.245s-14.177,79.454-30.63,102.894c.038.014-38.615-.525-38.615-.525Z" transform="translate(0 0.452)" fill="#65cee7"/>
    <path id="jaune" d="M616.853,288.078c-5.4,18.143-64.065,98.125-78.228,103.451.019.029-150.139-.256-150.139-.256l-62.55-103.2Z" transform="translate(273.441 0.269)" fill="#fddc17"/>
    <path id="vert" d="M465.8,288.078c.536.2-221.018,0-221.018,0s60.841,97.46,77.836,103.2c-.019.054,189.658,0,189.658,0S466.308,304.738,465.8,288.078Z" transform="translate(150.122 0.269)" fill="#87c966"/>
    <path id="mauve" d="M506.4,288.078V391.664H457.655V288.078Z" transform="translate(473.608 0.268)" fill="#af27cc"/>
    <path id="rouge" d="M552.019,288.347s-11.247,82.373-11.247,103.444c-.043.319-130.672,0-130.672,0s69.045-70.441,78.59-103.444C489.427,287.345,552.019,288.347,552.019,288.347Z" transform="translate(401.342)" fill="#ff3b4a"/>
  </g>
</svg>
